<svg width="516" height="349" viewBox="0 0 516 349" fill="none" xmlns="http://www.w3.org/2000/svg">
<path d="M474.962 347.93C450.992 347.93 436.774 335.664 435.687 317.996H458.607C458.607 323.885 461.87 331.725 476.05 332.213C485.878 332.213 491.318 326.324 491.318 321.897C490.23 315.033 481.489 314.545 472.786 313.045C462.958 311.619 455.343 309.631 449.866 307.193C442.251 303.255 437.862 294.89 437.862 286.075C437.862 270.358 450.992 258.092 473.874 258.092C495.707 258.092 509.886 269.382 510.937 286.562H489.142C489.142 282.174 488.054 274.784 474.962 274.784C466.222 274.784 460.782 276.247 459.695 282.624C459.695 291.476 478.226 290.989 492.405 294.402C505.497 297.853 514.238 306.18 514.238 317.996C514.238 339.602 496.794 347.93 474.962 347.93Z" fill="white"/>
<path d="M57.3032 202.971L132.553 159.271L172.917 228.516H71.483" fill="white"/>
<path d="M215.542 345.324V257.924V345.324Z" fill="white"/>
<path d="M215.542 345.324V257.924" stroke="white" stroke-width="21.5"/>
<path d="M22.3768 302.919C22.3768 316.648 34.3808 327.938 47.4352 327.938C61.6524 327.938 72.5311 316.648 72.5311 302.919C72.5311 289.677 61.6524 277.899 47.4352 277.899C34.3808 277.899 22.3768 289.677 22.3768 302.919ZM46.3473 348.082C22.3768 348.082 1.66992 327.938 1.66992 302.919C1.66992 277.899 22.3768 258.244 46.3473 258.244C56.1756 258.244 64.916 260.719 72.5311 266.083V259.219H94.3633V346.093H72.5311V340.692C66.0039 345.606 56.1756 348.082 46.3473 348.082Z" fill="white"/>
<path d="M337.603 228.496L232.906 45.8958L308.156 1.70862L439.036 228.496" fill="white"/>
<path d="M122.722 302.919C122.722 316.648 133.638 327.938 147.818 327.938C160.872 327.938 172.914 316.648 172.914 302.919C172.914 289.677 160.872 277.899 147.818 277.899C133.638 277.899 122.722 289.677 122.722 302.919ZM146.73 348.082C121.634 348.082 102.015 327.938 102.015 302.919C102.015 277.899 121.634 258.244 146.73 258.244C156.521 258.244 165.261 260.719 172.914 266.083V229.285H194.709V346.093H172.914V340.692C165.261 345.606 156.521 348.082 146.73 348.082Z" fill="white"/>
<path d="M145.655 124.924L221.993 81.749L305.983 228.491H226.344V250.097H204.549V228.491" fill="white"/>
<path d="M500.095 250.777C494.619 250.777 489.179 245.863 489.179 239.974C489.179 234.085 494.619 229.171 500.095 229.171C506.623 229.171 511.012 234.085 511.012 239.974C511.012 245.863 506.623 250.777 500.095 250.777ZM500.095 230.672C494.619 230.672 491.355 235.06 491.355 239.974C491.355 244.888 494.619 249.314 500.095 249.314C505.535 249.314 508.798 244.888 508.798 239.974C508.798 235.06 505.535 230.672 500.095 230.672Z" fill="white"/>
<path d="M502.346 245.902L500.17 240.988H497.994V245.902H496.344V234.124H501.258C502.346 234.124 504.521 235.624 504.521 237.575C504.521 239.526 503.434 240.501 502.346 240.988L504.521 245.902H502.346ZM500.17 235.624H497.994V239.526H500.17C502.346 239.526 502.346 239.038 502.346 237.575C502.346 236.562 502.346 235.624 500.17 235.624Z" fill="white"/>
<path d="M356.048 302.919C356.048 316.648 366.964 327.938 381.144 327.938C394.236 327.938 406.202 316.648 406.202 302.919C406.202 289.677 394.236 277.899 381.144 277.899C366.964 277.899 356.048 289.677 356.048 302.919ZM380.019 348.082C354.96 348.082 335.341 327.938 335.341 302.919C335.341 277.899 354.96 258.244 380.019 258.244C389.847 258.244 398.587 260.719 406.202 266.083V259.219H426.947V346.093H406.202V340.692C398.587 345.606 389.847 348.082 380.019 348.082Z" fill="white"/>
<path d="M255.778 302.919C255.778 316.648 267.782 327.938 280.874 327.938C295.053 327.938 305.969 316.648 305.969 302.919C305.969 289.677 295.053 277.899 280.874 277.899C267.782 277.899 255.778 289.677 255.778 302.919ZM305.969 229.285H327.764V346.093H305.969V340.692C299.405 345.606 290.664 348.082 280.874 348.082C255.778 348.082 235.071 327.938 235.071 302.919C235.071 277.899 255.778 258.244 280.874 258.244C290.664 258.244 299.405 260.719 305.969 266.083V229.285Z" fill="white"/>
</svg>
