<svg width="124" height="48" viewBox="0 0 124 48" fill="none" xmlns="http://www.w3.org/2000/svg">
<path d="M123.042 0.757721L33.4977 42.4979C26.0722 45.9372 19.835 47.6624 14.7912 47.6624C9.07932 47.6624 4.93309 45.4738 2.36274 41.091C0.746068 38.277 0.271777 34.7093 0.934765 30.3823C1.59775 26.0553 3.36232 21.4492 6.21827 16.5471C8.59993 12.583 12.5014 7.37385 17.9328 0.914051C16.0905 4.08904 14.7396 7.57517 13.9344 11.2319C12.5065 17.9038 13.7916 22.8003 17.79 25.9269C19.6922 27.3841 22.3085 28.1155 25.6438 28.1155C28.306 28.1155 31.3047 27.6466 34.64 26.7086L123.042 0.757721Z" fill="white"/>
</svg>
