<svg width="400" height="91" viewBox="0 0 400 91" fill="none" xmlns="http://www.w3.org/2000/svg">
<path fill-rule="evenodd" clip-rule="evenodd" d="M145.802 63.8396C145.802 50.333 139.106 42.9447 114.863 39.0193L114.863 48.6013C131.603 51.4874 135.874 55.874 135.759 64.186C135.643 72.1516 129.871 80.2323 111.516 80.2323C96.0462 80.2323 87.1573 72.036 85.3102 60.6071H74.1122C75.4975 74.6913 87.2726 90.0452 111.169 90.0452C135.528 90.0452 145.802 76.423 145.802 63.8396ZM76.7672 24.4739C76.7672 41.6747 92.3519 46.7541 105.281 47.9085L105.281 38.2113C94.6608 36.826 86.8106 33.0167 86.8106 24.5891C86.8106 16.277 95.007 9.81244 108.514 9.81244C120.635 9.81244 128.716 15.8155 130.679 25.1663H142.223C141.184 15.1231 131.487 0 108.514 0C91.1976 0 76.7672 9.46604 76.7672 24.4739ZM0 1.7319V11.7751H63.2626V1.7319H0ZM63.2626 40.0588H0V49.9869H63.2626V40.0588ZM63.2626 78.2701H0V88.3138H63.2626V78.2701ZM168.082 1.7319V88.3137H158.038V1.7319H168.082ZM177.663 11.7751V1.7319H194.633C210.911 1.7319 221.3 11.8907 221.3 25.8594C221.3 39.828 210.334 49.9868 194.633 49.9868H177.663V39.9431H194.633C205.369 39.9431 211.257 34.1712 211.257 25.8593C211.257 17.5473 205.369 11.775 194.633 11.775L177.663 11.7751ZM243.464 1.7319H233.421V88.3137H243.464V1.7319ZM299.223 25.8594C299.223 11.8907 288.833 1.7319 272.556 1.7319H253.046V11.775H272.209C282.945 11.775 288.602 18.1245 288.602 25.8593C288.602 33.7092 282.945 39.9431 272.209 39.9431H253.046V49.9868H272.556C288.256 49.9868 299.223 39.828 299.223 25.8594ZM269.554 58.6448L289.179 88.3137H301.763L281.56 58.6448H269.554ZM313.651 1.7319H323.695V88.3137H313.651V1.7319ZM334.429 1.7319V11.7751H400V1.7319H334.429ZM372.294 88.3137V21.126H362.25V88.3137H372.294Z" fill="white"/>
</svg>
