<svg width="95" height="23" viewBox="0 0 95 23" fill="none" xmlns="http://www.w3.org/2000/svg">
<path d="M0.816541 17.6442V14.8842H12.5765C13.2485 14.8842 13.5845 14.5082 13.5845 13.7562C13.5845 13.0202 13.2485 12.6522 12.5765 12.6522H4.96854C3.54454 12.6522 2.46454 12.3322 1.72854 11.6922C0.992541 11.0362 0.624541 10.1002 0.624541 8.88424C0.624541 7.65224 0.992541 6.70824 1.72854 6.05224C2.48054 5.38024 3.56054 5.04424 4.96854 5.04424H15.9125V7.80424H5.13654C4.44854 7.80424 4.10454 8.14024 4.10454 8.81224C4.10454 9.14824 4.20054 9.41224 4.39254 9.60424C4.58454 9.79624 4.83254 9.89224 5.13654 9.89224H13.2005C14.4485 9.89224 15.4005 10.2202 16.0565 10.8762C16.7285 11.5162 17.0645 12.4522 17.0645 13.6842C17.0645 14.9322 16.7285 15.9082 16.0565 16.6122C15.3845 17.3002 14.4325 17.6442 13.2005 17.6442H0.816541ZM16.4674 17.5242V5.16424H27.2434C28.6514 5.16424 29.6754 5.51624 30.3154 6.22024C30.9714 6.90824 31.2994 7.82024 31.2994 8.95624V17.5242H27.8194V9.36424C27.8194 8.40424 27.3394 7.92424 26.3794 7.92424H19.9474V17.5242H16.4674ZM37.5071 17.6442C35.3631 17.6442 33.6911 17.1162 32.4911 16.0602C31.2911 14.9882 30.6911 13.4202 30.6911 11.3562C30.6911 9.27624 31.2911 7.70824 32.4911 6.65224C33.6911 5.58024 35.3631 5.04424 37.5071 5.04424H43.5071C44.9151 5.04424 45.9871 5.38024 46.7231 6.05224C47.4751 6.70824 47.8511 7.65224 47.8511 8.88424C47.8511 11.3962 46.4031 12.6522 43.5071 12.6522H34.4351C34.7711 14.1402 35.7951 14.8842 37.5071 14.8842H47.2271V17.6442H37.5071ZM37.5071 7.80424C35.8591 7.80424 34.8431 8.50024 34.4591 9.89224H43.3391C43.6591 9.89224 43.9071 9.79624 44.0831 9.60424C44.2751 9.41224 44.3711 9.14824 44.3711 8.81224C44.3711 8.14024 44.0271 7.80424 43.3391 7.80424H37.5071ZM50.6629 17.5242C49.3669 17.5242 48.3749 17.1962 47.6869 16.5402C46.9989 15.8842 46.6549 14.9482 46.6549 13.7322C46.6549 12.5322 46.9989 11.6042 47.6869 10.9482C48.3749 10.2922 49.3669 9.96424 50.6629 9.96424H59.8789V9.38824C59.8789 8.41224 59.3989 7.92424 58.4389 7.92424H48.2629V5.16424H59.3509C60.8069 5.16424 61.8389 5.50024 62.4469 6.17224C63.0549 6.82824 63.3589 7.75624 63.3589 8.95624V17.5242H50.6629ZM51.2869 14.7642H59.8789V12.7242H51.2869C50.9829 12.7242 50.7429 12.8202 50.5669 13.0122C50.4069 13.1882 50.3269 13.4282 50.3269 13.7322C50.3269 14.0362 50.4069 14.2842 50.5669 14.4762C50.7429 14.6682 50.9829 14.7642 51.2869 14.7642ZM63.3677 17.5242V0.364238H66.8477V5.16424H75.1517C76.5597 5.16424 77.6317 5.50024 78.3677 6.17224C79.1197 6.82824 79.4957 7.77224 79.4957 9.00424C79.4957 11.0202 78.5357 12.2202 76.6157 12.6042L79.5437 17.5242H75.6317L72.7997 12.7482H66.8477V17.5242H63.3677ZM74.9837 7.90024H66.8477V10.0122H74.9837C75.3037 10.0122 75.5517 9.91624 75.7277 9.72424C75.9197 9.53224 76.0157 9.26824 76.0157 8.93224C76.0157 8.24424 75.6717 7.90024 74.9837 7.90024ZM81.8398 22.9242V20.1642H89.0878C90.0478 20.1642 90.5278 19.6762 90.5278 18.7002V17.5242H83.1118C81.7038 17.5242 80.6718 17.1722 80.0158 16.4682C79.3758 15.7642 79.0558 14.8522 79.0558 13.7322V5.16424H82.5358V13.3242C82.5358 14.2842 83.0158 14.7642 83.9758 14.7642H90.4078V5.16424H94.0078V19.1322C94.0078 20.2682 93.6798 21.1802 93.0238 21.8682C92.3678 22.5722 91.3438 22.9242 89.9518 22.9242H81.8398Z" fill="black"/>
</svg>
